<svg width="99" height="18" viewBox="0 0 99 18" fill="none" xmlns="http://www.w3.org/2000/svg">
<rect width="17.0446" height="17.0446" transform="translate(0.624634 0.451782)" fill="#00B67A"/>
<path d="M11.8427 11.3861L12.9739 14.8683L9.14504 12.0854L11.8427 11.3861ZM15.341 7.58462H10.6073L9.14556 3.0802L7.67869 7.58565L2.94495 7.57945L6.77843 10.367L5.31156 14.8678L9.14504 12.0854L11.5122 10.367L15.341 7.58462Z" fill="white"/>
<rect width="17.0446" height="17.0446" transform="translate(20.7684 0.451904)" fill="#00B67A"/>
<path d="M31.9865 11.3862L33.1177 14.8685L29.2888 12.0855L31.9865 11.3862ZM35.4848 7.58474H30.7511L29.2894 3.08032L27.8225 7.58577L23.0887 7.57958L26.9222 10.3671L25.4554 14.8679L29.2888 12.0855L31.656 10.3671L35.4848 7.58474Z" fill="white"/>
<rect width="17.0446" height="17.0446" transform="translate(40.912 0.451782)" fill="#00B67A"/>
<path d="M52.1321 11.3861L53.2632 14.8683L49.4344 12.0854L52.1321 11.3861ZM55.6303 7.58462H50.8966L49.4349 3.0802L47.968 7.58565L43.2343 7.57945L47.0678 10.367L45.6009 14.8678L49.4344 12.0854L51.8015 10.367L55.6303 7.58462Z" fill="white"/>
<rect width="17.0446" height="17.0446" transform="translate(61.0556 0.451904)" fill="#00B67A"/>
<path d="M72.2737 11.3862L73.4048 14.8685L69.576 12.0855L72.2737 11.3862ZM75.772 7.58474H71.0382L69.5765 3.08032L68.1097 7.58577L63.3759 7.57958L67.2094 10.3671L65.7425 14.8679L69.576 12.0855L71.9431 10.3671L75.772 7.58474Z" fill="white"/>
<rect width="17.0446" height="17.0446" transform="translate(81.1994 0.451782)" fill="#00B67A"/>
<path d="M92.4274 11.386L93.5585 14.8682L89.7297 12.0853L92.4274 11.386ZM95.9256 7.5845H91.1919L89.7302 3.08008L88.2633 7.58553L83.5296 7.57933L87.3631 10.3669L85.8962 14.8677L89.7297 12.0853L92.0968 10.3669L95.9256 7.5845Z" fill="white"/>
</svg>
